<svg width="78" height="78" viewBox="0 0 78 78" fill="none" xmlns="http://www.w3.org/2000/svg">
<path d="M49.7574 56.1868C50.0587 55.8862 50.2978 55.529 50.4608 55.1359C50.6239 54.7427 50.7079 54.3212 50.7079 53.8956C50.7079 53.4699 50.6239 53.0485 50.4608 52.6553C50.2978 52.2621 50.0587 51.905 49.7574 51.6043L37.1474 38.9943L49.7574 26.3843C50.3651 25.7767 50.7065 24.9525 50.7065 24.0931C50.7065 23.2337 50.3651 22.4095 49.7574 21.8018C49.1498 21.1941 48.3256 20.8528 47.4662 20.8528C46.6068 20.8528 45.7826 21.1941 45.1749 21.8018L30.2574 36.7193C29.9562 37.02 29.7171 37.3771 29.554 37.7703C29.3909 38.1635 29.307 38.5849 29.307 39.0106C29.307 39.4362 29.3909 39.8577 29.554 40.2509C29.7171 40.644 29.9562 41.0012 30.2574 41.3018L45.1749 56.2193C46.4099 57.4543 48.4899 57.4543 49.7574 56.1868Z" fill="white"/>
</svg>
