<svg width="78" height="78" viewBox="0 0 78 78" fill="none" xmlns="http://www.w3.org/2000/svg">
<path d="M28.2426 21.8132C27.9413 22.1138 27.7022 22.471 27.5392 22.8641C27.3761 23.2573 27.2921 23.6788 27.2921 24.1044C27.2921 24.5301 27.3761 24.9515 27.5392 25.3447C27.7022 25.7379 27.9413 26.095 28.2426 26.3957L40.8526 39.0057L28.2426 51.6157C27.6349 52.2233 27.2935 53.0475 27.2935 53.9069C27.2935 54.7663 27.6349 55.5905 28.2426 56.1982C28.8502 56.8058 29.6744 57.1472 30.5338 57.1472C31.3932 57.1472 32.2174 56.8058 32.8251 56.1982L47.7426 41.2807C48.0438 40.98 48.2829 40.6229 48.446 40.2297C48.6091 39.8365 48.693 39.4151 48.693 38.9894C48.693 38.5638 48.6091 38.1423 48.446 37.7491C48.2829 37.356 48.0438 36.9988 47.7426 36.6982L32.8251 21.7807C31.5901 20.5457 29.5101 20.5457 28.2426 21.8132Z" fill="white"/>
</svg>
